<?xml version="1.0" standalone="no"?><!DOCTYPE svg PUBLIC "-//W3C//DTD SVG 1.1//EN" "http://www.w3.org/Graphics/SVG/1.1/DTD/svg11.dtd"><svg t="1717259633672" class="icon" viewBox="0 0 1024 1024" version="1.1" xmlns="http://www.w3.org/2000/svg" p-id="1449" xmlns:xlink="http://www.w3.org/1999/xlink" width="200" height="200"><path d="M512 150.25664c7.1424 0 20.224 2.2272 27.59168 17.152l81.24416 164.61312a82.0224 82.0224 0 0 0 61.78816 44.91264l181.69344 26.40384c16.46592 2.39104 22.6304 14.14656 24.83712 20.9408 2.20672 6.79424 4.13184 19.92192-7.7824 31.5392l-131.48672 128.16384a82.03776 82.03776 0 0 0-23.58272 72.61184l31.03744 180.96128c1.6128 9.41568-0.54272 17.72032-6.40512 24.6784-6.08256 7.21408-15.01696 11.52-23.90016 11.52-4.83328 0-9.5232-1.2288-14.336-3.7632l-162.49856-85.43232a82.35008 82.35008 0 0 0-38.19008-9.43104c-13.25056 0-26.45504 3.26144-38.17984 9.42592L311.31648 869.9904c-4.75136 2.49856-9.5744 3.7632-14.336 3.7632-8.88832 0-17.8176-4.30592-23.90016-11.51488-5.8624-6.95808-8.01792-15.26272-6.40512-24.6784l31.03744-180.95104a82.03264 82.03264 0 0 0-23.59808-72.6272l-131.4816-128.16896c-11.91424-11.61728-9.99424-24.74496-7.7824-31.5392 2.20672-6.79424 8.36608-18.54464 24.83712-20.9408l181.69344-26.39872a81.9968 81.9968 0 0 0 61.7728-44.88192l81.25952-164.64384c7.36256-14.9248 20.44416-17.152 27.58656-17.152m0-71.79264c-36.57728 0-73.15968 19.05664-91.96544 57.16992L338.77504 300.27776a10.25536 10.25536 0 0 1-7.72096 5.61152L149.36064 332.288c-84.11648 12.22144-117.7088 115.59936-56.83712 174.92992l131.47648 128.15872c2.41664 2.3552 3.52256 5.74976 2.94912 9.07776l-31.03744 180.96128c-11.37152 66.29376 41.30304 120.12032 101.06368 120.12032 15.76448 0 32.04096-3.75296 47.744-12.0064l162.51392-85.43744a10.28096 10.28096 0 0 1 9.54368 0l162.51392 85.43744c15.70816 8.25856 31.96928 12.0064 47.744 12.0064 59.75552 0 112.43008-53.8368 101.06368-120.12032l-31.03744-180.96128a10.26048 10.26048 0 0 1 2.94912-9.07776l131.47648-128.15872c60.87168-59.33056 27.27936-162.70848-56.83712-174.92992l-181.69344-26.40384a10.25536 10.25536 0 0 1-7.72096-5.61152L603.97568 135.6288c-18.816-38.10816-55.3984-57.1648-91.97568-57.1648z" fill="#666666" p-id="1450"></path></svg>